<svg width="720" height="720" viewBox="0 0 720 720" fill="none" xmlns="http://www.w3.org/2000/svg">
<rect width="720" height="720" fill="black"/>
<rect width="720" height="720" fill="#1D2B53"/>
<path d="M404.725 500H315.925L221.925 357.6V500H133.125V216.8H221.925L315.925 361.6V216.8H404.725V500ZM564.444 198L554.044 387.6H478.044L467.644 198H564.444ZM516.044 503.2C500.577 503.2 488.177 499.067 478.844 490.8C469.51 482.533 464.844 472.133 464.844 459.6C464.844 446.8 469.51 436.267 478.844 428C488.177 419.467 500.577 415.2 516.044 415.2C531.244 415.2 543.51 419.467 552.844 428C562.177 436.267 566.844 446.8 566.844 459.6C566.844 472.133 562.177 482.533 552.844 490.8C543.51 499.067 531.244 503.2 516.044 503.2Z" fill="#F0F0F0"/>
</svg>
